PathFileType	4	(X/Y/Z)	Kaydara	
DataRate	CameraRate	NumFrames	NumMarkers	Units	OrigDataRate	OrigDataStartFrame	OrigNumFrames	
60.00	60.00	4	74	mm	60.00	1252	200	
Frame#	Time	Z_lasi			Z_rasi			Z_rpsi			Z_lpsi			Z_fneck			Z_bneck			Z_fhead			Z_rhead			Z_lhead			Z_rshld			Z_relbtop			Z_relbext			Z_relblow			Z_rwrext			Z_rwrtop			Z_rwrlow			Z_lshld			Z_lelbext			Z_lelblow			Z_lelbtop			Z_lwrext			Z_lwrtop			Z_lwrlow			Z_rtopleg			Z_ltopleg			Z_rkneefr			Z_rkneebk			Z_rkneeis			Z_lkneefr			Z_lknssbk			Z_lkneeis			Z_rankfr			Z_rankis			Z_rankbk			Z_lankfr			Z_lankbk			Z_lankis			A_lasi			A_rasi			A_rpsi			A_lpsi			A_fneck			A_bneck			A_fhead			A_rhead			A_lhead			A_rshld			A_relbtop			A_relbext			A_relblow			A_rwrext			A_rwrtop			A_rwrlow			A_lshld			A_lelbext			A_lelblow			A_lelbtop			A_lwrext			A_lwrtop			A_lwrlow			A_rtopleg			A_ltopleg			A_rkneefr			A_rkneebk			A_rkneeis			A_lkneefr			A_lknssbk			A_lkneeis			A_rankfr			A_rankis			A_rankbk			A_lankfr			A_lankbk			A_lankis			
		X1	Y1	Z1	X2	Y2	Z2	X3	Y3	Z3	X4	Y4	Z4	X5	Y5	Z5	X6	Y6	Z6	X7	Y7	Z7	X8	Y8	Z8	X9	Y9	Z9	X10	Y10	Z10	X11	Y11	Z11	X12	Y12	Z12	X13	Y13	Z13	X14	Y14	Z14	X15	Y15	Z15	X16	Y16	Z16	X17	Y17	Z17	X18	Y18	Z18	X19	Y19	Z19	X20	Y20	Z20	X21	Y21	Z21	X22	Y22	Z22	X23	Y23	Z23	X24	Y24	Z24	X25	Y25	Z25	X26	Y26	Z26	X27	Y27	Z27	X28	Y28	Z28	X29	Y29	Z29	X30	Y30	Z30	X31	Y31	Z31	X32	Y32	Z32	X33	Y33	Z33	X34	Y34	Z34	X35	Y35	Z35	X36	Y36	Z36	X37	Y37	Z37	X38	Y38	Z38	X39	Y39	Z39	X40	Y40	Z40	X41	Y41	Z41	X42	Y42	Z42	X43	Y43	Z43	X44	Y44	Z44	X45	Y45	Z45	X46	Y46	Z46	X47	Y47	Z47	X48	Y48	Z48	X49	Y49	Z49	X50	Y50	Z50	X51	Y51	Z51	X52	Y52	Z52	X53	Y53	Z53	X54	Y54	Z54	X55	Y55	Z55	X56	Y56	Z56	X57	Y57	Z57	X58	Y58	Z58	X59	Y59	Z59	X60	Y60	Z60	X61	Y61	Z61	X62	Y62	Z62	X63	Y63	Z63	X64	Y64	Z64	X65	Y65	Z65	X66	Y66	Z66	X67	Y67	Z67	X68	Y68	Z68	X69	Y69	Z69	X70	Y70	Z70	X71	Y71	Z71	X72	Y72	Z72	X73	Y73	Z73	X74	Y74	Z74	

51	20.850	-232.65696	1083.74641	687.48940	-286.35263	1092.81021	488.49815	-116.17044	1110.64003	404.29363	-44.90066	1096.15150	638.16700	-214.56982	1440.46478	566.75938	-113.73759	1516.55090	565.51968	-340.65048	1607.85248	542.04002	-189.41687	1650.86029	481.15044	-199.20692	1648.97873	628.65662	-164.77268	1435.61127	355.94490	-140.01830	1114.13269	277.88033	-112.84318	1097.07214	330.69988	-205.25785	1125.24200	317.70290	-239.31803	887.72469	285.81041	-271.05038	900.98442	316.79390	-245.82067	895.36255	351.47255	-107.30199	1442.61902	749.96315	-78.61705	1122.88734	752.42516	-144.65928	1142.17270	811.05797	-76.55032	1140.37964	822.04407	-200.45164	881.86844	790.39726	-195.06500	875.39520	836.97632	-148.49729	873.35098	835.40977	-173.37515	923.37982	359.44038	-144.65359	894.25209	724.26849	-246.93819	420.99438	408.91079	-178.65715	451.31283	354.79713	-186.01637	429.18266	479.35085	-197.24392	445.76694	688.82751	-92.85007	471.95404	670.60677	-191.67858	441.89716	595.52505	-205.40304	179.99941	378.09258	-181.75936	174.32995	440.10628	-128.76281	172.78980	370.57194	-127.12210	163.38167	678.50952	-72.76259	167.52216	617.94338	-152.70902	173.24980	611.14391	-970.08575	1032.08717	475.33039	-961.67480	1039.39178	634.67606	-1121.72363	1035.95505	650.49553	-1094.67796	1039.97971	468.82992	-1052.08672	1377.88010	563.14838	-1187.31339	1418.51303	550.44827	-981.76193	1575.76630	583.33088	-1136.18202	1557.76230	657.13142	-1125.64247	1567.39594	494.21635	-1126.37093	1344.85733	736.95053	-1021.61674	1075.60028	766.04500	-1075.29541	1046.16745	785.48622	-1047.10754	1060.07126	716.61179	-890.09987	895.63370	669.53743	-880.39558	932.68959	644.47723	-915.22125	929.36935	623.50029	-1075.80833	1351.96487	385.40279	-1023.10135	1043.51234	341.63914	-997.34489	1067.70325	408.35968	-979.86374	1062.69096	356.65424	-929.85855	890.83130	499.85268	-898.03116	877.16606	478.33729	-878.97797	908.76991	505.79807	-1066.34689	875.64766	733.65356	-1028.03070	889.69185	396.69521	-1026.43066	451.08532	642.36557	-1134.22600	486.62685	687.08801	-1113.58902	486.08723	568.97984	-1012.14836	463.23563	509.13929	-1096.24519	480.50621	412.76180	-1119.47174	479.70409	536.89911	-1099.18175	165.96081	664.35089	-1131.97678	163.02082	598.32722	-1180.41046	154.21663	667.25433	-1067.30377	166.64680	456.83990	-1128.13805	168.31953	421.02859	-1127.04712	173.66251	510.44796 
52	20.867	-232.34169	1083.77579	687.17468	-286.21616	1092.96799	488.19374	-115.72714	1110.35362	403.89183	-44.27447	1095.65231	637.84149	-213.47660	1439.61212	566.37901	-113.36480	1516.66763	565.20416	-341.61644	1605.13382	541.56151	-191.00300	1650.26474	480.99686	-200.96991	1648.16666	628.49487	-163.73680	1435.21179	355.52895	-139.57354	1113.79150	277.11309	-112.40269	1096.61118	329.87762	-204.74239	1125.12375	316.92667	-239.48334	887.65228	285.14317	-271.14756	901.03371	316.14933	-245.84721	895.37010	350.85194	-106.03533	1442.37640	749.55460	-77.61936	1122.67929	752.64587	-143.79389	1142.20337	811.19797	-75.42306	1140.24437	822.21695	-200.87967	882.43469	790.58815	-195.53757	875.86090	837.09824	-148.95885	873.48785	835.48683	-173.47157	923.28773	359.12472	-144.77571	894.19136	724.02245	-247.43986	420.92888	408.74828	-179.20534	451.24947	354.61624	-186.23432	429.02382	478.99170	-198.13843	445.64884	688.93913	-93.52686	471.91277	670.63194	-192.51453	441.78581	595.68195	-205.56522	179.87658	378.03490	-181.90439	174.32768	440.08324	-128.97623	172.78851	370.53421	-127.32465	163.31600	678.46756	-73.01043	167.57282	617.90474	-152.97185	173.08365	611.02898	-969.70047	1032.01820	475.28103	-961.13739	1039.39194	634.66022	-1121.54831	1036.19713	650.73753	-1094.50989	1040.12657	469.12598	-1051.84555	1378.23196	562.96246	-1187.22672	1418.33527	550.30968	-982.28714	1576.43082	583.54748	-1136.62132	1557.50519	657.35779	-1126.17065	1567.64587	494.44592	-1126.08116	1345.06851	736.88698	-1021.47560	1075.75912	766.12900	-1075.20065	1046.40915	785.65750	-1047.03323	1060.21667	716.81656	-890.14061	895.70213	669.61624	-880.50720	932.72171	644.53674	-915.32341	929.40147	623.56403	-1075.67665	1352.03079	385.30811	-1023.18504	1043.52280	341.79604	-997.33528	1067.72354	408.45165	-979.88846	1062.63931	356.81602	-930.10025	890.66917	499.96983	-898.28514	877.03133	478.45646	-879.20723	908.58032	505.91320	-1066.57455	875.69275	733.90869	-1028.28171	889.70505	396.93367	-1026.87988	451.02119	642.60132	-1134.61227	486.62064	687.33238	-1113.87024	486.07166	569.11804	-1012.51404	463.20313	509.29657	-1096.53503	480.51453	412.85896	-1119.76334	479.68403	537.04552	-1099.32152	165.96207	664.45587	-1132.09740	163.01023	598.41949	-1180.58304	154.17213	667.36130	-1067.39357	166.67736	456.85356	-1128.22838	168.30273	421.04839	-1127.12112	173.64952	510.49179 
53	20.883	-231.93197	1083.87711	686.88194	-286.05898	1093.09067	487.97474	-115.15913	1110.08255	403.28129	-44.00559	1095.32043	637.52220	-212.45842	1438.88168	565.97309	-112.98635	1516.87012	564.81167	-342.84191	1602.40799	541.27193	-192.76426	1649.54681	480.82695	-202.96717	1647.29706	628.40599	-162.94765	1434.82651	355.22438	-139.00204	1113.52776	276.30812	-111.91958	1096.30836	329.09859	-204.12039	1124.96529	316.35229	-239.39009	887.46338	284.48326	-271.05782	901.00517	315.58144	-245.72529	895.34149	350.12768	-105.01235	1442.15149	749.14299	-76.61791	1122.52357	752.93114	-142.62353	1142.36237	811.37833	-74.35466	1140.18005	822.45796	-201.48172	883.06038	790.78438	-195.96748	876.51390	837.24571	-149.64922	873.77205	835.32333	-173.60952	923.22273	358.90434	-144.80480	894.08478	723.71078	-247.87376	420.89863	408.44707	-179.70129	451.16970	354.39728	-185.99686	428.85799	478.48301	-198.77083	445.62546	689.10881	-94.15515	471.79855	670.57823	-193.15374	441.68377	595.74921	-205.69729	179.80839	377.99171	-182.02862	174.31166	440.05867	-129.13179	172.82190	370.47565	-127.55109	163.24591	678.41209	-73.21017	167.59394	617.90916	-153.16967	172.83878	610.64556	-969.53056	1031.98502	475.38017	-961.04378	1039.44527	634.84936	-1121.37093	1036.46729	650.92842	-1094.38332	1040.27634	469.39640	-1051.44447	1378.65112	562.82894	-1187.02148	1417.96219	550.10529	-982.94159	1577.46948	583.77403	-1137.21893	1557.21283	657.45537	-1126.63429	1567.81540	494.57153	-1125.67589	1345.34332	736.88560	-1021.29753	1075.95268	766.18332	-1075.12756	1046.65359	785.77232	-1046.96381	1060.35873	716.95663	-890.27725	895.73288	669.71222	-880.61226	932.70462	644.55315	-915.47714	929.36752	623.64082	-1075.35370	1352.12906	385.20840	-1023.28415	1043.52814	341.99047	-997.37328	1067.69745	408.57819	-979.91379	1062.55020	356.94675	-930.36850	890.46539	500.07954	-898.56247	876.85608	478.56590	-879.46648	908.34793	506.02322	-1066.82648	875.75089	734.14047	-1028.60085	889.74617	397.24323	-1027.32292	450.98789	642.81853	-1134.94560	486.60465	687.51785	-1114.21219	486.06979	569.29493	-1012.73170	463.23868	509.38740	-1096.82938	480.53371	412.98325	-1120.14076	479.65641	537.23152	-1099.43169	165.95165	664.51729	-1132.25273	163.03001	598.48164	-1180.61935	154.11079	667.47116	-1067.48734	166.71408	456.87267	-1128.32016	168.27175	421.09818	-1127.17949	173.59161	510.49271 
54	20.900	-231.14916	1083.72276	686.38832	-285.88650	1093.18489	487.80632	-114.58284	1109.89838	402.65736	-43.53026	1095.03517	637.17144	-211.80511	1438.16193	565.66353	-112.93185	1517.00775	564.43783	-343.98937	1599.97787	541.07761	-194.59005	1649.00650	480.81249	-204.80555	1646.46301	628.40862	-162.36710	1434.42215	354.87934	-138.34743	1113.21236	275.50583	-111.21946	1095.87494	328.21049	-203.33252	1124.58939	315.59692	-239.01367	887.24098	283.88071	-270.59204	900.87296	314.85983	-245.38824	895.20454	349.54037	-103.86253	1442.01370	748.65585	-75.76466	1122.40067	753.17833	-141.48698	1142.60765	811.67686	-73.38141	1140.18616	822.65640	-202.22225	883.98094	791.04958	-196.65659	877.25052	837.43729	-150.40001	874.03992	835.40977	-173.67264	923.14552	358.70613	-144.64987	894.03297	723.44101	-248.23345	420.87269	408.33378	-180.04948	451.12999	354.28524	-185.94492	428.82439	478.20362	-199.12020	445.53162	689.11842	-94.59236	471.72508	670.48157	-193.61677	441.61301	595.79803	-205.78934	179.75580	377.96104	-182.15515	174.32541	440.01392	-129.21493	172.83546	370.40474	-127.89584	163.22639	678.44299	-73.35036	167.59804	617.91519	-153.31066	172.73474	610.58243	-969.18640	1031.75896	475.42400	-960.87257	1039.41910	635.00366	-1121.27388	1036.73019	651.17577	-1094.33815	1040.44235	469.59179	-1050.83466	1379.16687	562.73750	-1186.78619	1417.47757	549.91707	-983.78815	1578.54141	584.20750	-1138.01750	1556.81442	657.53304	-1127.24083	1567.97119	494.73763	-1124.98322	1345.73303	736.83777	-1021.09802	1076.14738	766.23077	-1075.01228	1046.92993	785.89073	-1046.75026	1060.54237	717.03064	-890.43961	895.68550	669.80446	-880.72937	932.62321	644.63943	-915.58548	929.33609	623.68656	-1074.84619	1352.21909	385.11101	-1023.40508	1043.46428	342.15927	-997.33162	1067.71240	408.69534	-979.96529	1062.41272	357.04727	-930.65514	890.24338	500.17994	-898.92647	876.64215	478.66455	-879.67575	908.11775	506.12537	-1067.07436	875.83855	734.43474	-1028.96378	889.81285	397.51747	-1027.69142	450.94906	642.99973	-1135.20386	486.57940	687.63916	-1114.61510	486.09669	569.48940	-1012.96104	463.24242	509.50741	-1097.10243	480.54455	413.08838	-1120.52818	479.64958	537.43885	-1099.55330	165.94780	664.59137	-1132.36816	163.02763	598.55644	-1180.74936	154.07455	667.54677	-1067.56020	166.73410	456.91364	-1128.41225	168.28241	421.15330	-1127.25456	173.54399	510.54241 
